<svg width="15" height="17" viewBox="0 0 15 17" fill="none" xmlns="http://www.w3.org/2000/svg">
<path opacity="0.6" fill-rule="evenodd" clip-rule="evenodd" d="M11.2203 11.7772L14.4888 15.6127L13.9219 16.0999L10.6445 12.2645C9.51661 13.1207 8.24698 13.5488 6.83563 13.5488C5.97936 13.5488 5.16001 13.382 4.37759 13.0484C3.59517 12.7147 2.92198 12.2659 2.35801 11.702C1.79404 11.138 1.34524 10.4648 1.01163 9.68239C0.678012 8.89995 0.511193 8.0806 0.511169 7.22436C0.511146 6.36811 0.677966 5.54877 1.01163 4.76633C1.34529 3.98388 1.79408 3.31069 2.35801 2.74674C2.92193 2.18279 3.59513 1.734 4.37759 1.40036C5.16006 1.06672 5.97941 0.899902 6.83563 0.899902C7.69185 0.899902 8.51119 1.06672 9.29366 1.40036C10.0761 1.734 10.7493 2.18279 11.3132 2.74674C11.8772 3.31069 12.326 3.98388 12.6596 4.76633C12.9933 5.54877 13.1601 6.36811 13.1601 7.22436C13.1601 8.10423 12.9888 8.93686 12.6463 9.72226C12.3038 10.5077 11.8285 11.1926 11.2203 11.7772ZM6.8357 12.8047C7.84547 12.8047 8.77849 12.5552 9.63476 12.0562C10.491 11.5572 11.1687 10.8796 11.6676 10.0234C12.1666 9.16711 12.4161 8.23409 12.4161 7.22429C12.4162 6.21449 12.1667 5.28147 11.6676 4.42522C11.1686 3.56898 10.491 2.89137 9.63476 2.39238C8.77854 1.8934 7.84552 1.64391 6.8357 1.64391C5.82587 1.64391 4.89285 1.8934 4.03663 2.39238C3.18041 2.89137 2.5028 3.56898 2.00379 4.42522C1.50479 5.28147 1.25529 6.21449 1.25532 7.22429C1.25534 8.23409 1.50483 9.16711 2.00379 10.0234C2.50275 10.8796 3.18036 11.5572 4.03663 12.0562C4.8929 12.5552 5.82592 12.8047 6.8357 12.8047Z" fill="white"/>
</svg>
