<svg width="14" height="16" viewBox="0 0 14 16" fill="none" xmlns="http://www.w3.org/2000/svg">
<path opacity="0.6" fill-rule="evenodd" clip-rule="evenodd" d="M10.7203 11.2772L13.9888 15.1127L13.4219 15.5999L10.1445 11.7645C9.01661 12.6207 7.74698 13.0488 6.33563 13.0488C5.47936 13.0488 4.66001 12.882 3.87759 12.5484C3.09517 12.2147 2.42198 11.7659 1.85801 11.202C1.29404 10.638 0.845244 9.96484 0.511628 9.18239C0.178012 8.39995 0.0111927 7.5806 0.0111694 6.72436C0.0111462 5.86811 0.177966 5.04877 0.511628 4.26633C0.84529 3.48388 1.29408 2.81069 1.85801 2.24674C2.42193 1.68279 3.09513 1.234 3.87759 0.900361C4.66006 0.566722 5.47941 0.399902 6.33563 0.399902C7.19185 0.399902 8.01119 0.566722 8.79366 0.900361C9.57613 1.234 10.2493 1.68279 10.8132 2.24674C11.3772 2.81069 11.826 3.48388 12.1596 4.26633C12.4933 5.04877 12.6601 5.86811 12.6601 6.72436C12.6601 7.60423 12.4888 8.43686 12.1463 9.22226C11.8038 10.0077 11.3285 10.6927 10.7202 11.2773L10.7203 11.2772ZM6.3357 12.3047C7.34547 12.3047 8.27849 12.0552 9.13476 11.5562C9.99103 11.0572 10.6687 10.3796 11.1676 9.52336C11.6666 8.66711 11.9161 7.73409 11.9161 6.72429C11.9162 5.71449 11.6667 4.78147 11.1676 3.92522C10.6686 3.06898 9.99098 2.39137 9.13476 1.89238C8.27854 1.3934 7.34552 1.14391 6.3357 1.14391C5.32587 1.14391 4.39285 1.3934 3.53663 1.89238C2.68041 2.39137 2.0028 3.06898 1.50379 3.92522C1.00479 4.78147 0.755294 5.71449 0.755318 6.72429C0.755341 7.73409 1.00483 8.66711 1.50379 9.52336C2.00275 10.3796 2.68036 11.0572 3.53663 11.5562C4.3929 12.0552 5.32592 12.3047 6.3357 12.3047Z" fill="white"/>
</svg>
